# xmcd
#
# Track frame offsets: 
#        150
#        17555
#        32980
#        49998
#
# Disc length: 1056 seconds
#
# Revision: 0
# Processed by: cddbd v1.5.2PL0 Copyright (c) Steve Scherf et al.
# Submitted via: ExactAudioCopyFreeDBPlugin 1.0
#
DISCID=2d041e04
DTITLE=FAZE - The Things You Do  [CDM Promo)
DYEAR=1991
DGENRE=Funk
TTITLE0=The Things You Do (LP Version)
TTITLE1=The Things You Do (Club Mix)
TTITLE2=The Things You Do (Instrumental)
TTITLE3=Cold Sweat (Extended Remix)
EXTD=
EXTT0=
EXTT1=
EXTT2=
EXTT3=
PLAYORDER=
